<control> default_path=Sustain\
<region> hikey=c#3 pitch_keycenter=c3 sample=3_C_f.wav offset=6734
<region> lokey=d3 hikey=e3 pitch_keycenter=d#3 sample=3_Eb_f.wav offset=8709
<region> lokey=f3 hikey=g3 pitch_keycenter=f#3 sample=3_Gb_f.wav offset=10613
<region> lokey=g#3 hikey=a#3 pitch_keycenter=a3 sample=3_A_f.wav offset=11599
<region> lokey=b3 hikey=c#4 pitch_keycenter=c4 sample=4_C_f.wav offset=10138
<region> lokey=d4 hikey=e4 pitch_keycenter=d#4 sample=4_Eb_f.wav offset=14636
<region> lokey=f4 hikey=g4 pitch_keycenter=f#4 sample=4_Gb_f.wav offset=10111
<region> lokey=g#4 hikey=a#4 pitch_keycenter=a4 sample=4_A_f.wav offset=15224
<region> lokey=b4 hikey=c#5 pitch_keycenter=c5 sample=5_C_f.wav offset=10126
<region> lokey=d5 hikey=e5 pitch_keycenter=d#5 sample=5_Eb_f.wav offset=14850
<region> lokey=f5 hikey=g5 pitch_keycenter=f#5 sample=5_Gb_f.wav offset=17399
<region> lokey=g#5 hikey=a#5 pitch_keycenter=a5 sample=5_A_f.wav offset=16900
<region> lokey=b5 hikey=c#6 pitch_keycenter=c6 sample=6_C_f.wav offset=12408
<region> lokey=d6 pitch_keycenter=d#6 sample=6_Eb_f.wav offset=21749